<svg width="32" height="32" viewBox="0 0 32 32" fill="none" xmlns="http://www.w3.org/2000/svg">
<g clip-path="url(#clip0_3919_10664)">
<path fill-rule="evenodd" clip-rule="evenodd" d="M32 16C32 24.8366 24.8366 32 16 32C7.16344 32 0 24.8366 0 16C0 7.16344 7.16344 0 16 0C24.8366 0 32 7.16344 32 16ZM13.688 8.2688L23.288 14.6688C23.7328 14.9664 24 15.4656 24 16C24 16.5344 23.7328 17.0336 23.288 17.3312L13.688 23.7312C13.4192 23.9088 13.1104 24 12.8 24C12.5408 24 12.2816 23.9376 12.0448 23.8112C11.5248 23.5328 11.2 22.9904 11.2 22.4V9.6C11.2 9.0096 11.5248 8.4672 12.0464 8.1888C12.5648 7.9088 13.1952 7.9408 13.688 8.2688Z" fill="white"/>
</g>
<defs>
<clipPath id="clip0_3919_10664">
<rect width="32" height="32" fill="white"/>
</clipPath>
</defs>
</svg>
