<svg width="134" height="46" viewBox="0 0 134 46" fill="none" xmlns="http://www.w3.org/2000/svg">
<path d="M17.399 1.2876H18.5695C22.6331 1.37688 26.6305 3.02863 29.5015 5.95268C28.4414 7.04641 27.3593 8.0955 26.3213 9.18923C24.7091 7.71604 22.7656 6.57767 20.6454 6.17589C17.5094 5.50626 14.1304 6.10893 11.5023 7.91693C8.63122 9.81422 6.68774 13.0284 6.26813 16.4659C5.80434 19.8587 6.754 23.43 8.94041 26.0639C11.0385 28.6308 14.2408 30.2379 17.5535 30.3495C20.6454 30.5281 23.8698 29.5683 26.1225 27.3808C27.8893 25.8407 28.7065 23.497 28.9715 21.2202C25.3054 21.2202 21.6393 21.2426 17.9732 21.2202V16.6221H33.4106C34.2056 21.5551 33.0572 27.113 29.3469 30.6397C26.8734 33.1397 23.4502 34.6128 19.9608 34.903C16.5818 35.2378 13.0924 34.5905 10.0888 32.9388C6.48898 30.9968 3.61793 27.7156 2.20449 23.8541C0.879396 20.3051 0.857311 16.2873 2.09407 12.7159C3.2204 9.45708 5.38473 6.57767 8.16744 4.56878C10.8397 2.58222 14.0862 1.48849 17.399 1.2876Z" fill="white"/>
<path d="M105.96 2.44775H110.686V34.3221C109.118 34.3221 107.528 34.3444 105.96 34.2998C105.982 23.6973 105.96 13.0725 105.96 2.44775V2.44775Z" fill="white"/>
<path d="M43.9224 13.4973C46.8377 12.9393 49.9958 13.5643 52.4031 15.3276C54.5895 16.8901 56.1134 19.3454 56.5771 22.0239C57.1734 25.1265 56.4225 28.5192 54.4349 30.9745C52.2926 33.72 48.7811 35.1932 45.358 34.9699C42.2219 34.7914 39.1742 33.2066 37.319 30.6174C35.2209 27.7603 34.713 23.8319 35.8614 20.4837C37.0098 16.8901 40.2563 14.1446 43.9224 13.4973V13.4973ZM44.585 17.7383C43.3924 18.0508 42.2881 18.7427 41.4931 19.7248C39.3508 22.314 39.4834 26.5327 41.8464 28.9433C43.1936 30.3272 45.2254 30.9745 47.1027 30.5951C48.8474 30.2826 50.3713 29.0996 51.2105 27.5371C52.6681 24.8809 52.2485 21.2203 50.0179 19.1445C48.5824 17.8052 46.4843 17.2472 44.585 17.7383Z" fill="white"/>
<path d="M67.3308 13.497C70.6656 12.8497 74.3096 13.7872 76.8052 16.1532C80.8689 19.8362 81.3106 26.7334 77.8432 30.9744C75.7451 33.6529 72.3441 35.1261 68.9871 34.9698C65.7848 34.8806 62.6267 33.2734 60.7273 30.6172C58.5851 27.6932 58.1213 23.6754 59.336 20.2603C60.5507 16.7782 63.7309 14.122 67.3308 13.497V13.497ZM67.9933 17.738C66.8007 18.0505 65.6965 18.7425 64.9014 19.7023C62.7813 22.2469 62.8696 26.3986 65.1443 28.8316C66.4915 30.2824 68.5896 30.9967 70.5331 30.5949C72.2557 30.2601 73.8017 29.0994 74.6409 27.5369C76.0764 24.8584 75.6568 21.1978 73.4041 19.1219C71.9686 17.7826 69.8705 17.2469 67.9933 17.738Z" fill="white"/>
<path d="M87.1876 14.7923C89.7274 13.1852 93.1064 12.7388 95.845 14.1227C96.7063 14.5021 97.413 15.1495 98.0976 15.7968C98.1197 15.1941 98.0976 14.5691 98.1197 13.9441C99.5994 13.9664 101.079 13.9441 102.581 13.9664V33.6535C102.559 36.6222 101.808 39.7695 99.6877 41.9346C97.3688 44.3229 93.8131 45.0595 90.6108 44.5685C87.1876 44.0551 84.2062 41.5328 82.8811 38.3409C84.2062 37.6936 85.5975 37.1802 86.9668 36.5776C87.7398 38.4079 89.3078 39.9703 91.2734 40.3275C93.2389 40.6846 95.5137 40.1936 96.7946 38.5418C98.1639 36.8454 98.1639 34.524 98.0976 32.4482C97.0817 33.4526 95.9112 34.3455 94.4978 34.6803C91.428 35.5508 88.049 34.4794 85.6859 32.3812C83.3007 30.2831 81.8872 27.0465 82.0197 23.8323C82.086 20.194 84.1178 16.6896 87.1876 14.7923V14.7923ZM91.7592 17.6494C90.4121 17.8726 89.1532 18.6315 88.2919 19.6806C86.2159 22.1806 86.2159 26.176 88.314 28.6313C89.5066 30.0822 91.428 30.8857 93.2831 30.6848C95.0278 30.5063 96.64 29.3902 97.5013 27.8501C98.9589 25.2385 98.716 21.6895 96.7504 19.4128C95.5358 18.0065 93.5923 17.3146 91.7592 17.6494V17.6494Z" fill="white"/>
<path d="M116.359 15.931C119.009 13.431 123.095 12.5828 126.496 13.8997C129.72 15.1274 131.774 18.23 132.812 21.4219C128.02 23.4308 123.249 25.4174 118.457 27.4263C119.119 28.6985 120.135 29.8592 121.505 30.328C123.426 31.0199 125.723 30.7744 127.335 29.4798C127.975 28.9887 128.483 28.3414 128.969 27.7164C130.184 28.5423 131.399 29.3459 132.613 30.1717C130.891 32.7833 127.998 34.6136 124.884 34.9038C121.438 35.3279 117.772 33.9886 115.542 31.2655C111.875 26.9798 112.229 19.7925 116.359 15.931V15.931ZM118.722 20.0603C117.971 21.1541 117.662 22.4933 117.684 23.8103C120.886 22.471 124.088 21.1317 127.291 19.7702C126.761 18.5202 125.48 17.7613 124.177 17.5604C122.079 17.1809 119.892 18.3193 118.722 20.0603V20.0603Z" fill="white"/>
</svg>
