<svg width="118" height="32" viewBox="0 0 118 32" fill="none" xmlns="http://www.w3.org/2000/svg">
<g clip-path="url(#clip0_3918_10671)">
<path d="M10.148 5.344C11.4707 5.344 12.676 5.48267 13.764 5.76C14.8733 6.016 15.8227 6.464 16.612 7.104C17.4227 7.72267 18.0413 8.544 18.468 9.568C18.916 10.592 19.14 11.8613 19.14 13.376C19.1187 14.9333 18.8093 16.2667 18.212 17.376C17.636 18.4853 16.8467 19.3813 15.844 20.064C15.0547 20.6187 14.148 21.024 13.124 21.28C12.1 21.5147 11.0333 21.632 9.924 21.632H6.436V28H0.644V5.344H10.148ZM9.924 16.48C11.0333 16.48 11.8867 16.224 12.484 15.712C13.1027 15.1787 13.4227 14.4533 13.444 13.536C13.4653 12.576 13.1987 11.872 12.644 11.424C12.0893 10.9547 11.172 10.72 9.892 10.72H6.436V16.48H9.924ZM27.8423 22.656H38.6903V28H22.0503V5.344H27.8423V22.656ZM46.0168 28H39.8087L48.8968 5.344H54.7848L63.7768 28H57.5368L56.4167 24.8H47.1688L46.0168 28ZM54.5928 19.584L51.8408 11.808L48.9928 19.584H54.5928ZM78.4228 5.344H84.9828L76.2148 19.552V28H70.4228V19.584L61.7188 5.344H68.4068L73.3348 14.336L78.4228 5.344ZM110.25 5.344H117.034L109.322 16.672L117.258 28H110.282L105.642 20.8L100.81 28H94.25L102.25 16.64L94.506 5.344H101.45L105.898 12.544L110.25 5.344Z" fill="white"/>
</g>
<defs>
<clipPath id="clip0_3918_10671">
<rect width="118" height="32" fill="white"/>
</clipPath>
</defs>
</svg>
