<svg width="80" height="98" viewBox="0 0 80 98" fill="none" xmlns="http://www.w3.org/2000/svg">
<g clip-path="url(#clip0_4019_13371)">
<path d="M71.3807 35.74H66.5188V27.784C66.5188 12.756 54.5848 0.380005 39.9988 0.380005C25.4128 0.380005 13.4788 12.756 13.4788 27.784V35.74H8.61675C3.75475 35.74 0.21875 39.718 0.21875 44.138V88.78C0.21875 93.642 3.75475 97.62 8.61675 97.62H71.3807C75.8007 97.62 79.7788 93.642 79.7788 89.222V44.138C79.7788 39.718 76.2427 35.74 71.3807 35.74ZM22.3188 27.784C22.3188 17.618 30.2748 9.22001 39.9988 9.22001C49.7228 9.22001 57.6788 17.618 57.6788 27.784V35.74H22.3188V27.784ZM70.9388 88.78H9.05875V44.58H70.9388V88.78ZM43.9767 68.448V74.194C43.9767 76.404 42.2088 78.172 39.9988 78.172C37.7888 78.172 36.0208 76.404 36.0208 74.194V68.448C34.6948 67.122 33.8108 65.796 33.8108 64.028C33.8108 60.492 36.4628 57.84 39.9988 57.84C43.5348 57.84 46.1867 60.492 46.1867 64.028C46.1867 65.796 45.3027 67.122 43.9767 68.448Z" fill="white"/>
</g>
<defs>
<clipPath id="clip0_4019_13371">
<rect width="80" height="98" fill="white"/>
</clipPath>
</defs>
</svg>
