<svg width="168" height="40" viewBox="0 0 168 40" fill="none" xmlns="http://www.w3.org/2000/svg">
<g clip-path="url(#clip0_4003_10695)">
<path d="M18.5684 0.0811453C16.4111 0.322984 13.175 1.32755 11.3338 2.33211C6.38678 4.99234 3.03916 9.14081 1.36535 14.6659C1.03059 15.7449 0.640031 18.6841 0.658629 20.0608C0.658629 21.27 1.03059 24.2278 1.25376 24.9348C1.36535 25.2696 1.60712 26.0695 1.8117 26.6834C2.14646 27.7252 3.76448 30.9993 4.04345 31.2226C4.09924 31.2784 4.39681 31.6504 4.67578 32.0783C5.3639 33.1015 7.1679 34.9246 8.52554 35.9663C9.56702 36.7663 12.5055 38.4591 12.8775 38.4777C12.9704 38.4777 12.989 37.7708 12.9332 36.8407C12.8031 34.7757 13.1936 31.9667 14.0305 29.1018C14.1793 28.6182 14.2909 27.9857 14.2909 27.7066C14.2909 27.4276 14.3653 27.1299 14.4583 27.0369C14.5513 26.9253 14.7186 26.3858 14.8116 25.8277C14.9232 25.2696 15.1092 24.4139 15.2394 23.9302C15.4254 23.2047 15.4068 22.9256 15.1464 22.1443C14.7744 20.9537 14.7558 19.019 15.1278 18.0889C16.0019 15.8751 16.969 15.038 18.6056 15.038C20.577 15.038 21.5255 16.5262 21.1535 19.019C20.9861 20.1538 20.5212 21.9397 20.2236 22.4978C20.1492 22.6652 20.019 23.1303 19.9632 23.5209C19.8889 23.9302 19.7401 24.5069 19.6471 24.8231C19.3867 25.5487 19.8889 26.9625 20.5584 27.502C21.1907 28.0043 22.5112 28.1531 23.72 27.874C24.5755 27.688 24.9289 27.4648 25.8216 26.609C26.8817 25.5673 27.6814 24.3581 27.6814 23.7814C27.6814 23.6139 27.7744 23.3907 27.886 23.2791C28.4067 22.7582 28.6857 18.7027 28.2951 16.9913C27.8674 15.1124 26.5469 13.2707 24.8359 12.1917C23.1249 11.0941 19.5913 10.7779 17.4153 11.522C15.8903 12.0429 14.5327 12.9172 13.6586 13.9404C12.8775 14.8519 12.0591 16.3402 12.0591 16.8611C12.0591 17.0471 11.9662 17.2889 11.8546 17.4005C11.743 17.5122 11.6128 18.2191 11.557 18.9818C11.464 20.1166 11.5384 20.6375 11.8732 21.7536C12.0963 22.5164 12.5055 23.4093 12.7473 23.7442C13.2494 24.4139 13.2494 24.6743 12.7845 26.4602C12.6543 26.9439 12.4311 27.3904 12.3009 27.4462C11.1292 27.8926 8.74872 25.0836 7.94901 22.2931C7.65144 21.2328 7.63284 17.4563 7.93041 16.3402C8.06059 15.8751 8.28377 15.2426 8.43255 14.9077C8.58134 14.5915 8.71152 14.2752 8.71152 14.2008C8.71152 14.1264 9.08348 13.4939 9.54843 12.8056C11.9662 9.15941 15.8903 7.2247 20.8559 7.2247C21.9904 7.2247 23.1621 7.29911 23.4783 7.39213C26.0448 8.19205 26.7329 8.4525 27.7372 9.04779C29.69 10.2198 31.1034 11.8196 32.5168 14.4985C32.6098 14.6659 32.74 15.1124 32.7958 15.4844C32.8702 15.8565 33.0004 16.2099 33.0934 16.2658C33.1864 16.3216 33.2608 17.5308 33.2608 18.9632C33.2608 21.549 33.0748 22.5908 32.2937 24.7115C31.4196 27.0369 29.1692 29.6041 27.1234 30.6087C25.9518 31.1668 23.7572 31.7807 22.8831 31.7807C21.7115 31.7807 19.4053 30.8133 18.773 30.032C18.4754 29.6785 18.1965 29.8087 18.1965 30.311C18.1965 30.4971 18.1221 30.8133 18.0105 30.9993C17.9175 31.1668 17.7501 31.6876 17.6571 32.1527C17.1178 34.6083 16.3553 36.5988 15.1836 38.4591C14.8302 39.0358 15.1278 39.3707 16.0949 39.5009C16.5784 39.5753 17.2294 39.7055 17.5269 39.7986C18.2708 40.0404 22.3066 40.0032 23.6642 39.7613C24.8917 39.5381 26.8817 38.98 27.7744 38.608C33.3909 36.3012 37.6499 31.6132 39.491 25.6417C40.4767 22.4606 40.5325 18.7586 39.6398 15.038C39.3423 13.8288 39.2493 13.5497 38.4496 11.6894C37.2965 8.97338 34.6928 5.79227 32.0519 3.83895C29.7829 2.16468 27.5512 1.19733 24.0734 0.36019C23.1063 0.136954 19.6657 -0.0490757 18.5684 0.0811453ZM68.169 6.79683C67.4437 6.90845 66.2906 8.09904 65.9931 9.02919C65.6769 10.0524 65.9931 11.1499 66.8858 12.0057C68.8571 13.9218 72.2791 12.1173 71.8514 9.36404C71.591 7.61536 69.9916 6.49918 68.169 6.79683ZM47.8973 7.89441C47.7299 8.08044 47.7299 30.5157 47.9159 30.7761C48.0089 30.9249 48.8086 30.9807 50.3708 30.9621L52.6956 30.9435L52.7885 27.1671C52.8629 24.0976 52.9373 23.3535 53.1605 23.2233C53.3093 23.1303 54.5739 23.0372 55.9688 23.0372C59.0188 23.0372 60.3021 22.814 61.6969 22.0699C63.5195 21.0839 64.5796 19.6701 65.1562 17.4191C65.5095 16.0053 65.5095 14.9821 65.1376 13.5311C64.8028 12.2289 64.654 11.9127 63.8543 10.8523C62.8686 9.53147 61.8643 8.80595 60.2277 8.22926C59.3164 7.93161 58.5539 7.8758 53.6255 7.81999C50.5568 7.78279 47.9717 7.81999 47.8973 7.89441ZM58.1075 12.5266C59.3536 12.9172 59.9673 13.4753 60.2463 14.4799C60.5997 15.8007 60.3393 17.0285 59.5582 17.7726C58.7027 18.5725 57.9402 18.7586 55.448 18.7586C53.8114 18.7586 53.3093 18.7027 53.0861 18.4609C52.8443 18.2377 52.7885 17.6982 52.7885 15.5774C52.7885 12.2289 52.7699 12.2475 55.3551 12.2475C56.4709 12.2475 57.5496 12.3591 58.1075 12.5266ZM90.7283 11.429C90.7283 12.7126 90.6353 13.9218 90.5423 14.1264C90.4121 14.3682 90.1517 14.4799 89.7054 14.4799C89.3706 14.4799 89.0545 14.5543 89.0173 14.6659C88.9987 14.7589 88.9987 15.41 89.0545 16.0983C89.1474 17.3261 89.166 17.3447 89.724 17.475C90.0401 17.5308 90.3935 17.6424 90.5051 17.7168C90.6725 17.8098 90.7283 19.2794 90.7283 23C90.7283 28.0043 90.7469 28.1903 91.156 28.9344C92.0115 30.5157 93.3506 31.0737 96.0659 30.9993L97.8885 30.9435L97.9443 29.139L98 27.3159H97.5351C96.8284 27.3159 95.7869 26.7579 95.6753 26.3114C95.6195 26.0881 95.5637 24.1162 95.5637 21.9025C95.5637 18.8516 95.6195 17.8284 95.8055 17.6796C95.9357 17.568 96.4564 17.4563 96.9586 17.4191L97.8885 17.3633V14.5729L96.8656 14.5171C96.3076 14.4799 95.7869 14.3496 95.7125 14.238C95.6381 14.1078 95.5637 12.8986 95.5637 11.5406V9.085H90.7283V11.429ZM159.857 9.19662C159.782 9.27103 159.726 10.443 159.726 11.801C159.726 14.4427 159.708 14.4799 158.685 14.4799C158.22 14.4799 158.22 14.4985 158.276 15.9123C158.332 17.3261 158.35 17.3633 158.834 17.4191C159.094 17.4563 159.41 17.5866 159.503 17.6982C159.615 17.8284 159.726 20.0794 159.782 22.9442C159.838 25.6975 159.931 28.2089 160.005 28.5065C160.229 29.3251 161.382 30.3668 162.479 30.7203C163.706 31.1296 166.831 31.1668 167.147 30.7761C167.296 30.6087 167.352 29.939 167.314 28.9716L167.259 27.409L166.608 27.2973C165.901 27.1857 165.101 26.8137 164.897 26.4974C164.822 26.3858 164.748 24.3581 164.748 21.9955C164.748 17.1401 164.636 17.4563 166.254 17.4563C167.314 17.4563 167.407 17.2703 167.314 15.5774L167.259 14.5729L166.05 14.4799L164.841 14.3869L164.748 11.7824L164.655 9.17801L162.312 9.1222C161.028 9.1036 159.931 9.14081 159.857 9.19662ZM81.5223 14.0334C80.611 14.2752 79.5509 14.8891 78.8442 15.6147C77.9887 16.5076 77.7655 16.4518 77.6725 15.317L77.6167 14.5729H72.9673V30.9435L75.3106 30.9807C77.6167 31.0365 77.6725 31.0179 77.7841 30.6087C77.8399 30.3854 77.8957 28.0229 77.8957 25.344C77.8957 20.0422 77.9143 19.8933 79.0116 18.8516C79.4951 18.3865 79.7555 18.2935 80.797 18.2377L82.0059 18.1633L82.7312 18.926C83.5867 19.8189 83.4937 18.9632 83.5681 26.6648C83.5867 28.7112 83.6053 30.5157 83.6239 30.7017C83.6611 30.9621 83.9586 30.9993 86.0416 30.9621L88.4035 30.9435V17.8842L87.8642 16.8238C86.9343 14.9821 85.5023 14.1078 83.3077 13.9962C82.5266 13.9776 81.7269 13.9776 81.5223 14.0334ZM104.77 14.0334C102.761 14.5729 101.794 15.1124 100.548 16.3402C98.8742 18.033 98.1116 20.005 98.1116 22.6652C98.1302 27.3345 101.05 30.7947 105.365 31.204C109.047 31.5574 111.893 30.4785 113.715 28.0415C113.976 27.688 114.534 26.5532 114.534 26.3486C114.534 26.2742 113.455 26.1998 112.153 26.1998H109.773L109.215 26.7765C108.564 27.4462 107.652 27.874 106.815 27.874C105.979 27.874 104.695 27.2787 104.1 26.6462C103.654 26.1439 103.003 24.6929 103.003 24.1906C103.003 24.0232 104.361 23.9674 108.731 23.9674C111.874 23.9674 114.534 23.893 114.664 23.8186C114.943 23.6325 114.682 20.6747 114.273 19.5957C113.436 17.3447 111.855 15.4472 110.256 14.7775C109.791 14.5915 109.252 14.3496 109.066 14.2566C108.675 14.052 105.365 13.8846 104.77 14.0334ZM108.396 18.1075C109.122 18.6097 109.754 19.8003 109.661 20.47C109.605 20.8979 109.568 20.8979 106.425 20.9537C102.798 21.0095 102.78 20.9909 103.356 19.6515C103.765 18.7214 104.584 17.8842 105.346 17.6424C106.22 17.3633 107.634 17.5866 108.396 18.1075ZM132.295 14.0334C130.137 14.6101 128.631 15.5588 127.459 17.0285C126.994 17.6238 126.622 18.1819 126.622 18.2935C126.622 18.3865 126.492 18.7214 126.325 19.0376C126.157 19.3353 125.915 20.2654 125.785 21.1025C125.134 25.0836 126.92 28.8042 130.267 30.4785L131.551 31.1296H134.247C137.037 31.1296 137.279 31.0737 138.99 30.1622C140.236 29.4925 142.282 26.8881 141.965 26.3672C141.891 26.2742 140.831 26.1998 139.585 26.1998H137.297L136.832 26.7392C134.973 28.8414 131.495 27.7624 130.751 24.8417C130.639 24.4511 130.639 24.1162 130.732 24.0418C130.825 23.986 133.485 23.9488 136.665 23.9674C141.203 23.9674 142.43 23.9302 142.449 23.7442C142.616 21.4188 141.501 17.9772 140.106 16.489C139.325 15.6519 137.967 14.7217 137.297 14.5543C137 14.4799 136.665 14.3496 136.535 14.2566C136.275 14.052 132.871 13.8846 132.295 14.0334ZM135.196 17.661C136.033 17.9586 137 19.0004 137.149 19.8003C137.372 21.0095 137.39 21.0095 133.931 20.9537C130.825 20.8979 130.807 20.8979 130.751 20.47C130.677 19.9491 131.327 18.6655 131.885 18.1819C132.685 17.5122 134.08 17.2889 135.196 17.661ZM148.475 14.0334C144.662 14.9449 143.286 16.303 143.267 19.1306C143.267 22.1815 144.792 23.4651 149.312 24.265C152.418 24.8045 153.31 25.2882 153.273 26.4602C153.254 27.2973 152.678 27.8368 151.525 28.0787C150.074 28.3949 148.94 28.0415 148.028 27.0183L147.303 26.1998H145.053C143.23 26.1998 142.802 26.2556 142.802 26.4602C142.802 26.9997 143.546 28.4135 144.16 29.1204C144.737 29.7343 145.183 30.032 146.931 30.8691C147.099 30.9621 148.01 31.111 148.921 31.2226C150.614 31.4272 153.552 31.2412 154.296 30.8691C154.463 30.7947 154.947 30.5529 155.356 30.3668C156.416 29.8646 157.42 28.7298 157.792 27.6508C158.201 26.423 158.09 24.7115 157.513 23.5209C156.825 22.1257 155.003 21.1211 152.287 20.6375C148.791 20.0236 148.735 20.005 148.177 19.4655C147.508 18.7772 147.508 18.5353 148.177 17.7912C148.717 17.1959 148.754 17.1773 150.242 17.1773C151.729 17.1773 151.767 17.1959 152.306 17.7912C152.603 18.1261 152.845 18.5167 152.845 18.6655C152.845 18.8888 153.236 18.9446 155.17 18.9446C157.737 18.9446 157.662 19.0004 157.216 17.6796C156.397 15.3356 154.296 14.145 150.799 14.0148C149.721 13.9776 148.679 13.9776 148.475 14.0334ZM123.74 14.4241C122.921 14.7031 121.787 15.6333 121.433 16.303C121.08 16.9727 120.764 16.6936 120.671 15.5774L120.578 14.5729H115.928L115.873 22.3861C115.854 26.6834 115.873 30.3854 115.928 30.6273C116.021 31.0365 116.077 31.0365 118.309 30.9993C119.592 30.9807 120.634 30.8691 120.708 30.7575C120.782 30.6645 120.857 28.6926 120.857 26.3858C120.857 22.7396 120.894 22.0885 121.21 21.27C121.861 19.5771 123.256 18.5725 125.004 18.5725C125.488 18.5725 125.692 18.4795 125.748 18.2377C125.878 17.6982 125.897 15.1868 125.785 14.6287C125.674 14.1822 125.581 14.1078 125.079 14.1264C124.744 14.145 124.149 14.2752 123.74 14.4241ZM66.458 14.7031C66.4022 14.8333 66.3836 18.4981 66.4022 22.8512L66.458 30.7575L68.6712 30.8505C70.0102 30.9063 70.9773 30.8691 71.1261 30.7575C71.3307 30.6087 71.3864 29.0274 71.3864 22.7024C71.405 18.3865 71.3493 14.7589 71.2935 14.6659C71.1075 14.3869 66.551 14.4241 66.458 14.7031Z" fill="white"/>
</g>
<defs>
<clipPath id="clip0_4003_10695">
<rect width="168" height="40" fill="white"/>
</clipPath>
</defs>
</svg>
