<svg width="130" height="44" viewBox="0 0 130 44" fill="none" xmlns="http://www.w3.org/2000/svg">
<path d="M123.386 8.42105H117.772V0.5H105.445L99.7756 8.42105H89.7018L86.3333 11.8158V8.42105H78.4737V0.5H53.7719V8.42105H19.0211L13.3509 0.5H1V27.6579L16.7193 43.5H32.4386V38.9737L36.9298 43.5H67.2456V38.9737L71.7368 43.5H86.3333V38.9737L90.8246 43.5H118.895L129 33.3158V14.0789L123.386 8.42105ZM20.0877 19.7368H12.2281V22H20.0877V31.0526H7.73684L3.24561 26.5263V2.76316H12.2281V10.6842H20.0877V19.7368ZM53.7719 31.0526H26.8246L22.3333 26.5263V10.6842H31.3158V22H33.5614V10.6842H42.5439V22H44.7895V10.6842H53.7719V31.0526ZM65 31.0526H56.0175V10.6842H65V31.0526ZM65 8.42105H56.0175V2.76316H65V8.42105ZM84.0877 19.7368H76.2281V22H84.0877V31.0526H71.7368L67.2456 26.5263V2.76316H76.2281V10.6842H84.0877V19.7368ZM104.298 19.7368H95.3158V22H104.298V31.0526H90.8246L86.3333 26.5263V15.2105L90.8246 10.6842H104.298V19.7368ZM126.754 31.0526H117.772V19.7368H115.526V31.0526H106.544V2.76316H115.526V10.6842H122.263L126.754 15.2105V31.0526Z" fill="white"/>
</svg>
