<svg width="256" height="256" viewBox="0 0 256 256" fill="none" xmlns="http://www.w3.org/2000/svg">
<g clip-path="url(#clip0_3919_10665)">
<path fill-rule="evenodd" clip-rule="evenodd" d="M256 128C256 198.692 198.692 256 128 256C57.3076 256 0 198.692 0 128C0 57.3076 57.3076 0 128 0C198.692 0 256 57.3076 256 128ZM109.504 66.1504L186.304 117.35C189.863 119.731 192 123.725 192 128C192 132.275 189.863 136.269 186.304 138.65L109.504 189.85C107.354 191.27 104.883 192 102.4 192C100.326 192 98.2529 191.501 96.3585 190.49C92.1985 188.262 89.6001 183.923 89.6001 179.2V76.8C89.6001 72.0768 92.1985 67.7376 96.3713 65.5104C100.519 63.2704 105.562 63.5264 109.504 66.1504Z" fill="white"/>
</g>
<defs>
<clipPath id="clip0_3919_10665">
<rect width="256" height="256" fill="white"/>
</clipPath>
</defs>
</svg>
