<svg width="160" height="23" viewBox="0 0 160 42" fill="none" xmlns="http://www.w3.org/2000/svg">
<path d="M51.8307 16.6419C51.8307 13.789 49.0571 10.759 44.2574 10.759C38.8676 10.759 32.9467 14.7137 32.0418 22.6035C31.1173 30.5721 36.0743 34.1136 41.0708 34.1136C46.0672 34.1136 48.6834 32.1658 51.3586 29.5686C49.0571 26.6763 46.0868 28.0143 45.5164 28.3094C44.8869 28.6242 44.0804 29.0571 42.428 29.0571C40.5003 29.0571 38.5332 28.1913 38.5332 24.5908C50.8865 23.3709 51.8307 19.4948 51.8307 16.6419ZM45.7131 17.1141C45.6344 17.9995 45.2803 19.5145 39.025 20.3606C40.3429 15.6778 42.8608 15.3237 44.0214 15.3237C45.1033 15.3237 45.7918 16.1697 45.7131 17.1141ZM24.7832 17.8815C24.7832 17.8815 22.1277 26.2238 21.9113 26.9124C21.8326 26.2041 19.8852 11.2312 19.8852 11.2312C15.3609 11.2312 12.9413 14.4579 11.6627 17.8618C11.6627 17.8618 8.4367 26.2238 8.16131 26.9321C8.14164 26.2828 7.66954 17.9602 7.66954 17.9602C7.39415 13.789 3.57799 11.2509 0.489655 11.2509L4.22713 33.9365C8.96782 33.9169 11.525 30.7098 12.8627 27.306C12.8627 27.306 15.7149 19.9277 15.833 19.5932C15.8526 19.908 17.8787 33.9365 17.8787 33.9365C22.6391 33.9365 25.1963 30.9262 26.5733 27.6404L33.2417 11.2509C28.5404 11.2509 26.0618 14.4579 24.7832 17.8815ZM69.2985 10.7196C66.3675 10.7196 64.1251 12.3133 62.2367 14.6547V14.635L63.9284 1C60.0335 1 56.8665 4.38416 56.2567 9.42105L53.3061 33.7595C55.5485 33.7595 57.9287 33.1102 59.2073 31.4575C60.3482 32.9331 62.0596 34.1136 64.5972 34.1136C71.1672 34.1136 75.6719 26.4796 75.6719 19.3178C75.6325 12.7855 72.4655 10.7196 69.2985 10.7196ZM68.6887 22.4265C68.0002 26.4206 65.7774 29.1358 63.6333 29.1358C61.4695 29.1358 60.545 28.1717 60.545 28.1717C60.958 24.6695 61.2138 22.5248 62.0006 20.6754C62.7874 18.8259 64.6562 15.8746 66.6036 15.8746C68.5117 15.8746 69.3772 18.4127 68.6887 22.4265ZM92.0774 11.2509H87.4941L87.5138 11.0148C87.8285 8.0241 88.5367 6.45007 90.8775 6.19429C92.4708 6.03689 93.179 5.21053 93.356 4.30546C93.4937 3.59715 93.9265 1.13773 93.9265 1.13773C84.7205 1.0787 81.8289 5.05312 81.0814 11.1131L81.0617 11.2509H80.9634C79.4684 11.2509 77.816 12.9429 77.5406 15.0876L77.4423 15.8746H80.5109L77.934 37.1633L77.1472 40.9803C77.2456 40.9803 77.3636 41 77.4619 41C81.7699 40.8426 84.5238 37.4388 85.1336 32.5002L87.14 15.8746H88.576C89.9923 15.8746 91.6447 14.4579 91.9397 12.0969L92.0774 11.2509ZM115.919 10.8574C110.627 10.8574 105.631 14.7531 104.096 20.8721C102.562 26.9911 104.883 34.2317 112.673 34.2317C120.443 34.2317 124.928 26.696 124.928 20.4196C124.928 14.1825 120.699 10.8574 115.919 10.8574ZM118.063 22.2297C117.787 25.0039 116.568 29.2145 113.224 29.2145C109.86 29.2145 110.332 24.2956 110.666 21.9543C111.021 19.4555 112.417 15.8942 115.427 15.8942C118.122 15.8942 118.377 19.1013 118.063 22.2297ZM151.071 17.8815C151.071 17.8815 148.415 26.2238 148.199 26.9124C148.12 26.2041 146.172 11.2312 146.172 11.2312C141.648 11.2312 139.229 14.4579 137.95 17.8618C137.95 17.8618 134.724 26.2238 134.449 26.9321C134.429 26.2828 133.957 17.9602 133.957 17.9602C133.681 13.789 129.865 11.2509 126.777 11.2509L130.495 33.9365C135.235 33.9169 137.793 30.7098 139.13 27.306C139.13 27.306 141.983 19.9277 142.081 19.5932C142.12 19.908 144.127 33.9365 144.127 33.9365C148.887 33.9365 151.444 30.9262 152.821 27.6404L159.49 11.2509C154.808 11.2509 152.329 14.4579 151.071 17.8815ZM96.405 1.13773L92.5495 32.2445L91.7627 36.0812C91.8611 36.0812 91.9791 36.1008 92.0774 36.1008C96.228 36.0418 99.1786 32.4019 99.7294 27.8175L101.952 9.97196C102.621 4.52189 99.3753 1.13773 96.405 1.13773Z" fill="white"/>
</svg>
