<svg width="150" height="36" viewBox="0 0 150 36" fill="none" xmlns="http://www.w3.org/2000/svg">
<path d="M25.5676 34.5215L15.8461 34.3417C12.6984 34.2792 9.54301 34.4042 6.45719 33.7555C1.76273 32.7862 1.43017 28.0338 1.08215 24.0474C0.602646 18.443 0.788259 12.737 1.69312 7.17951C2.20356 4.06074 4.21437 2.20043 7.32338 1.9972C17.8183 1.26245 28.3827 1.34843 38.8544 1.69236C39.9603 1.72362 41.074 1.89558 42.1645 2.091C47.5473 3.0446 47.6788 8.43014 48.0268 12.9637C48.3748 17.5441 48.2279 22.148 47.5627 26.6972C47.0291 30.4647 46.0082 33.6226 41.7005 33.9274C36.3022 34.3261 31.0277 34.6465 25.614 34.5449C25.614 34.5215 25.5831 34.5215 25.5676 34.5215V34.5215ZM19.8523 24.9854C23.9203 22.6248 27.911 20.3033 31.9558 17.9584C27.88 15.5978 23.8971 13.2763 19.8523 10.9314V24.9854Z" fill="white"/>
<path d="M126.003 30.2394C125.817 31.0054 125.655 31.6073 125.493 32.2482H121.688V2.58447H126.127V13.5276C126.359 13.2306 126.475 13.1055 126.575 12.9727C127.333 11.9174 128.315 11.2296 129.584 10.9638C131.602 10.5652 133.327 11.4641 133.938 13.426C134.332 14.6454 134.588 15.9508 134.619 17.2248C134.68 20.5 134.634 23.7673 134.518 27.0424C134.472 28.0429 134.17 29.0669 133.791 30.0049C132.546 33.1002 128.478 33.5692 126.459 30.8882C126.336 30.724 126.22 30.5442 126.003 30.2394V30.2394ZM126.22 22.0789V27.5036C126.22 28.3869 126.684 28.9262 127.558 29.1294C128.416 29.3327 129.112 28.9966 129.46 28.1914C129.607 27.8553 129.754 27.5036 129.762 27.1518C129.847 23.8376 129.924 20.5234 129.947 17.2014C129.947 16.5839 129.8 15.9429 129.615 15.3411C129.267 14.2546 128.308 13.9341 127.364 14.5672C126.653 15.0519 126.22 15.7397 126.22 16.6542V22.0789ZM114.155 11.3859H118.803V32.2639H115.176C115.044 31.4744 114.913 30.6615 114.758 29.7079C114.51 30.0752 114.364 30.3097 114.209 30.5442C113.002 32.3029 111.293 32.9048 109.275 32.5843C107.55 32.3029 106.514 30.9585 106.282 28.7542C106.212 28.0977 106.181 27.4332 106.181 26.7767C106.166 21.8913 106.181 16.9904 106.181 12.105V11.3703H110.883V12.2223C110.883 16.9435 110.868 21.6568 110.899 26.378C110.899 27.0502 110.968 27.7459 111.084 28.4181C111.216 29.106 111.711 29.3561 112.376 29.3092C113.451 29.2232 114.193 28.4181 114.193 27.3394V12.3082C114.155 12.0034 114.155 11.722 114.155 11.3859V11.3859ZM82.152 11.3703H86.8232V12.2535C86.8232 16.9513 86.8078 21.6412 86.8387 26.3233C86.8387 26.9955 86.9006 27.6912 87.0398 28.3478C87.2177 29.1216 87.6662 29.3717 88.4319 29.2701C89.4914 29.1216 90.1333 28.379 90.1411 27.2925V12.3395V11.4015H94.7891V32.2639H91.1774C91.0459 31.49 90.9145 30.6927 90.7443 29.6844C90.5123 30.0362 90.3808 30.2394 90.2493 30.4504C89.0429 32.2404 87.3491 32.897 85.2842 32.5765C83.6292 32.3264 82.616 31.0914 82.3067 29.0669C82.2216 28.4338 82.1597 27.8084 82.1597 27.1753C82.1442 22.1024 82.1442 17.006 82.1442 11.9331L82.152 11.3703ZM79.7545 22.5166C79.739 23.2201 79.6926 23.9236 79.6539 24.6271C79.4761 26.7376 79.391 29.7313 77.705 31.2712C76.63 32.2404 75.2688 32.5922 73.8613 32.6391C73.2348 32.6547 72.6007 32.6547 71.9742 32.5687C69.0121 32.1153 67.6355 30.7944 67.1405 27.5036C66.576 23.7048 66.5296 19.8434 67.2024 16.0445C67.8985 12.1128 70.296 10.7215 74.0237 10.9794C77.5039 11.2296 79.0584 13.5354 79.4683 16.8184C79.6926 18.7022 79.8009 20.6094 79.7545 22.5166V22.5166ZM75.0214 21.7975C75.0214 20.4609 75.0523 19.1165 75.0059 17.7798C74.975 17.006 74.8744 16.2243 74.712 15.4583C74.5264 14.575 73.9696 14.1529 73.2735 14.1686C72.5929 14.1842 72.1134 14.6063 71.8659 15.427C71.7809 15.7319 71.6881 16.0446 71.6881 16.3494C71.6881 18.4442 71.6726 20.5469 71.6571 22.6417C71.6417 24.5958 71.3942 26.6438 72.0051 28.5119C72.1908 29.0825 72.6703 29.3952 73.2967 29.3952C73.9077 29.3952 74.3098 29.0903 74.5341 28.5432C74.712 28.1211 74.8667 27.6599 74.8667 27.2066C74.9208 25.4088 75.0214 23.6031 75.0214 21.7975ZM60.3193 17.8658C60.7292 15.8413 61.1159 13.8637 61.5412 11.8783C62.0749 9.35359 62.6704 6.82885 63.1963 4.29629C63.3278 3.67879 63.5752 3.53027 64.1553 3.54591C65.4004 3.59281 66.6688 3.56154 67.999 3.56154C67.5659 5.17175 67.1405 6.70379 66.7229 8.21238C65.4004 12.9492 64.0779 17.7017 62.7709 22.4541C62.6704 22.8215 62.624 23.2201 62.624 23.611C62.6085 26.206 62.624 28.7933 62.624 31.3884V32.2326H58.0842C58.0687 31.9981 58.0378 31.7636 58.0378 31.5291C58.0378 30.0596 57.9218 28.5823 58.0533 27.1284C58.3858 23.6344 57.2876 20.4218 56.3982 17.1701C55.2227 12.871 54.0316 8.55631 52.8561 4.25721C52.7942 4.05398 52.771 3.83512 52.7092 3.58499H57.3417C58.3162 8.32963 59.2984 13.0743 60.3193 17.8658ZM149.143 23.3139H141.316C141.401 24.9007 141.432 26.4093 141.594 27.9022C141.71 28.9418 142.275 29.3874 143.164 29.3952C144.093 29.4108 144.634 28.9418 144.85 27.9101C144.92 27.5739 144.966 27.2378 144.997 26.8939C145.028 26.5891 145.044 26.2608 145.067 25.823C146.389 25.8934 147.681 25.9716 148.957 26.0263C149.7 28.254 148.362 31.1148 146.111 31.9981C144.34 32.7016 142.523 32.7016 140.713 32.1622C139.375 31.7636 138.377 30.9038 137.929 29.5828C137.511 28.3478 137.117 27.058 137.031 25.7683C136.799 22.587 136.714 19.3744 137.194 16.1852C137.279 15.6537 137.426 15.1456 137.588 14.6298C138.238 12.5037 139.653 11.1983 141.842 10.9794C143.033 10.8622 144.263 10.9091 145.438 11.1123C147.341 11.4484 148.354 12.832 148.795 14.6454C148.996 15.4974 149.143 16.3728 149.174 17.2405C149.181 19.2337 149.143 21.2113 149.143 23.3139ZM144.696 20.5703C144.696 18.9992 144.711 17.5219 144.68 16.0367C144.68 15.685 144.549 15.3176 144.417 14.9815C144.154 14.3249 143.605 14.1451 142.948 14.1451C142.291 14.1451 141.873 14.4812 141.71 15.0831C141.216 16.8887 141.378 18.7334 141.393 20.586C142.577 20.5703 143.652 20.5703 144.696 20.5703V20.5703Z" fill="white"/>
<path d="M98.3772 7.39111H93.7756V3.62354H107.511V7.36766H102.94V32.2321H98.3849L98.3772 7.39111Z" fill="white"/>
</svg>
